<?xml version="1.0" encoding="utf-8"?>
<!-- Generator: Adobe Illustrator 29.5.1, SVG Export Plug-In . SVG Version: 9.03 Build 0)  -->
<svg version="1.0" id="Layer_1" xmlns="http://www.w3.org/2000/svg" xmlns:xlink="http://www.w3.org/1999/xlink" x="0px" y="0px"
	 viewBox="0 0 540.84 100" style="enable-background:new 0 0 540.84 100;" xml:space="preserve">
<g>
	<path d="M0,1.39h23.06c7.04,0,12.64,2.11,16.81,6.32c4.17,4.21,6.25,9.84,6.25,16.88v11.39c0,7.04-2.08,12.66-6.25,16.88
		c-4.17,4.21-9.77,6.32-16.81,6.32h-8.33v39.45H0V1.39z M22.36,45.28c2.87,0,5.09-0.79,6.67-2.36c1.57-1.57,2.36-3.8,2.36-6.67
		V24.31c0-2.87-0.79-5.09-2.36-6.67c-1.57-1.57-3.8-2.36-6.67-2.36h-7.64v30H22.36z"/>
	<path d="M87.08,77.08H71.25l-3.19,21.53H53.33L69.44,1.39h19.72l16.11,97.22h-15L87.08,77.08z M85.14,62.92l-5.97-40.69L73.2,62.92
		H85.14z"/>
	<path d="M110.97,1.39h46.95v13.89h-16.11v83.33h-14.72V15.28h-16.11V1.39z"/>
	<path d="M174.17,98.61V1.39h14.72v40.97h17.5V1.39h14.72v97.22h-14.72V56.25h-17.5v42.36H174.17z"/>
	<path d="M250.14,96.94c-3.61-2.03-6.41-4.86-8.4-8.47c-1.99-3.61-2.99-7.73-2.99-12.36v-3.47l14.17-1.53v3.61
		c0,3.52,0.83,6.3,2.5,8.33c1.67,2.04,3.98,3.06,6.95,3.06c2.87,0,5.16-0.83,6.87-2.5c1.71-1.67,2.57-3.93,2.57-6.8
		c0-3.15-0.9-6.16-2.71-9.03c-1.8-2.87-5.4-6.85-10.76-11.94c-7.22-6.85-12.15-12.55-14.79-17.08c-2.64-4.53-3.96-9.49-3.96-14.86
		c0-7.31,1.99-13.12,5.97-17.43C249.54,2.15,255,0,261.95,0c6.95,0,12.41,2.18,16.39,6.53c3.98,4.35,5.97,10.19,5.97,17.5v2.5
		l-14.17,1.53v-2.78c0-3.7-0.69-6.53-2.08-8.47c-1.39-1.94-3.38-2.92-5.97-2.92c-2.59,0-4.58,0.79-5.97,2.36
		c-1.39,1.58-2.08,3.89-2.08,6.95s0.92,6,2.78,8.82c1.85,2.83,5.42,6.88,10.69,12.15c7.22,7.22,12.15,13.03,14.79,17.43
		c2.64,4.4,3.96,9.24,3.96,14.51c0,4.63-1,8.75-2.99,12.36c-1.99,3.61-4.79,6.44-8.4,8.47c-3.61,2.04-7.73,3.06-12.36,3.06
		C257.87,100,253.75,98.98,250.14,96.94z"/>
	<path d="M303.61,98.61V1.39h14.72v40.97h17.5V1.39h14.72v97.22h-14.72V56.25h-17.5v42.36H303.61z"/>
	<path d="M400.56,77.08h-15.84l-3.19,21.53h-14.72l16.11-97.22h19.72l16.11,97.22h-15L400.56,77.08z M398.61,62.92l-5.98-40.69
		l-5.97,40.69H398.61z"/>
	<path d="M435,1.39h14.72v83.33h26.25v13.89H435V1.39z"/>
	<path d="M522.64,77.08h-15.84l-3.19,21.53h-14.72L505,1.39h19.72l16.11,97.22h-15L522.64,77.08z M520.7,62.92l-5.98-40.69
		l-5.97,40.69H520.7z"/>
</g>
</svg>
